<svg fill="none" height="160" viewBox="0 0 140 160" width="140" xmlns="http://www.w3.org/2000/svg">
  <style>
    .logo-fill-color-1 {
    fill: none;
    stroke: rgba(0, 0, 0, 0.3);
    }

    .logo-fill-color-2 {
    fill: rgba(0, 0, 0, 0.5);
    stroke: rgba(0, 0, 0, 0.8);
    }

    .logo-fill-color-3 {
    fill: rgba(0, 0, 0, 0.9);
    stroke: rgba(0, 0, 0, 0.8);
    }

    .logo-fill-color-0 {
    fill: rgba(0, 0, 0, 0.9);
    stroke: rgba(0, 0, 0, 0.8);
    }
  </style>
  <path class="logo-fill-color-0" d="M68.74,136.99l-0.6,0.34 M119.74,87.93v-0.8"/>
  <polygon class="logo-fill-color-0" points="137.45,77.7 136.14,117.03 68.74,156.63 68.74,136.99 119.74,107.55 119.74,87.92 "/>
  <line class="logo-fill-color-1" x1="98.95" x2="98.95" y1="95.12" y2="95.12"/>
  <line class="logo-fill-color-1" x1="102.74" x2="86.43" y1="58.48" y2="67.89"/>
  <line class="logo-fill-color-1" x1="137.45" x2="102.74" y1="77.69" y2="58.48"/>
  <line class="logo-fill-color-1" x1="68.74" x2="102.17" y1="117.37" y2="97.74"/>
  <line class="logo-fill-color-1" x1="34.74" x2="68.74" y1="97.74" y2="117.37"/>
  <line class="logo-fill-color-1" x1="69.92" x2="0.74" y1="0.52" y2="38.73"/>
  <line class="logo-fill-color-1" x1="103.44" x2="69.92" y1="19.48" y2="0.94"/>
  <polygon class="logo-fill-color-2" points="85.89,29.11 85.74,48.65 69.34,38.49 69.18,19.13 "/>
  <path class="logo-fill-color-3" d="M86.22,49L85.9,29.64l0.48,0.01l17.04-10.01l-0.32-0.02l-0.36,20.03l0.35-0.18l-17.34,9.81"/>
  <polyline class="logo-fill-color-3" points="34.52,97.74 34.58,58.65 69.18,38.68 68.96,19.14 68.56,18.81 16.89,48.66 17.55,48.88 17.52,107.55 33.89,98.1 "/>
  <path class="logo-fill-color-2" d="M119.74,87.13l0,20.43l0,0l-17.57-9.81l-15.83-8.84l0.09-21l33.31,20.03"/>
  <polygon class="logo-fill-color-2" points="17.74,106.29 17.76,48.88 0.74,38.7 0.74,117.37 68.74,156.63 68.14,137.34 17.74,107.55 "/>
</svg>
